<?xml version="1.0" encoding="iso-8859-1"?>
<!-- Generator: Adobe Illustrator 19.0.0, SVG Export Plug-In . SVG Version: 6.00 Build 0)  -->
<svg version="1.1" id="Capa_1" xmlns="http://www.w3.org/2000/svg" xmlns:xlink="http://www.w3.org/1999/xlink" x="0px" y="0px"
	 viewBox="0 0 466.003 466.003" style="enable-background:new 0 0 466.003 466.003;" xml:space="preserve">
<path style="fill:#F3F3F3;" d="M361.002,64c-5.588,0-11.031,0.578-16.355,1.494C322.729,26.435,280.978,0,233.002,0
	s-89.726,26.434-111.645,65.494C116.033,64.578,110.59,64,105.002,64c-53.019,0-96,42.981-96,96s42.981,96,96,96h256
	c53.019,0,96-42.981,96-96S414.021,64,361.002,64z"/>
<path style="fill:#E1E1E1;" d="M361.002,64c-5.586,0-11.031,0.578-16.355,1.494c-0.098-0.177-0.23-0.332-0.332-0.509
	c10.57,18.62,16.687,40.1,16.687,63.041c0,70.678-57.297,127.974-127.973,127.974h127.973c53.019,0,96-42.981,96-96
	S414.021,64,361.002,64z"/>
<polygon style="fill:#F9DB7B;" points="297.002,224 233.002,224 233.002,96.672 137.002,256 201.002,256 201.002,384 "/>
<g>
	<path style="fill:#70A9DC;" d="M289.001,349.996c-38.512,37.72-48,45.369-48,68.007c0,26.468,21.534,48,48,48
		c26.466,0,48-21.532,48-48C337.001,395.372,327.49,387.704,289.001,349.996z"/>
	<path style="fill:#70A9DC;" d="M393.001,292.511c-28.884,28.29-36,34.027-36,51.005c0,19.851,16.15,36,36,36s36-16.149,36-36
		C429.001,326.543,421.867,320.792,393.001,292.511z"/>
</g>
<g>
</g>
<g>
</g>
<g>
</g>
<g>
</g>
<g>
</g>
<g>
</g>
<g>
</g>
<g>
</g>
<g>
</g>
<g>
</g>
<g>
</g>
<g>
</g>
<g>
</g>
<g>
</g>
<g>
</g>
</svg>
