<?xml version="1.0" encoding="iso-8859-1"?>
<!-- Generator: Adobe Illustrator 19.0.0, SVG Export Plug-In . SVG Version: 6.00 Build 0)  -->
<svg version="1.1" id="Capa_1" xmlns="http://www.w3.org/2000/svg" xmlns:xlink="http://www.w3.org/1999/xlink" x="0px" y="0px"
	 viewBox="0 0 408.811 408.811" style="enable-background:new 0 0 408.811 408.811;" xml:space="preserve">
<path style="fill:#FCF1CE;" d="M382.864,222.13l24.097-14.458c2.466-1.48,2.466-5.054,0-6.534l-24.094-14.458
	c-11.922-7.154-15.078-23.026-6.801-34.198l16.728-22.575c1.712-2.311,0.345-5.613-2.5-6.036l-27.794-4.136
	c-13.752-2.046-22.743-15.502-19.37-28.99l6.815-27.258c0.698-2.79-1.83-5.318-4.62-4.62l-27.262,6.815
	c-13.487,3.371-26.942-5.619-28.988-19.37l-4.136-27.794c-0.423-2.845-3.726-4.213-6.036-2.5l-22.578,16.729
	c-11.17,8.277-27.042,5.119-34.195-6.802L207.673,1.851c-1.48-2.466-5.054-2.466-6.534,0l-14.456,24.094
	c-7.153,11.922-23.025,15.078-34.195,6.802l-22.579-16.73c-2.311-1.712-5.613-0.344-6.036,2.5l-4.136,27.794
	c-2.046,13.75-15.502,22.741-28.988,19.37l-27.262-6.815c-2.79-0.698-5.318,1.83-4.62,4.62l6.815,27.26
	c3.372,13.487-5.618,26.943-19.37,28.989l-27.795,4.136c-2.845,0.423-4.213,3.726-2.5,6.036l16.728,22.575
	c8.278,11.17,5.121,27.044-6.801,34.198L1.85,201.137c-2.466,1.48-2.466,5.054,0,6.534l24.097,14.458
	c11.921,7.153,15.078,23.025,6.801,34.194L16.018,278.9c-1.712,2.31-0.345,5.613,2.5,6.036l27.795,4.136
	c13.751,2.046,22.742,15.502,19.37,28.989l-6.815,27.261c-0.698,2.79,1.83,5.318,4.62,4.62l27.26-6.815
	c13.488-3.372,26.944,5.619,28.99,19.37l4.136,27.794c0.423,2.845,3.726,4.213,6.036,2.5l22.577-16.729
	c11.17-8.277,27.042-5.12,34.194,6.802l14.458,24.097c1.48,2.466,5.054,2.466,6.534,0l14.458-24.096
	c7.153-11.922,23.026-15.078,34.196-6.802l22.576,16.729c2.31,1.712,5.613,0.345,6.036-2.5l4.136-27.794
	c2.046-13.751,15.502-22.742,28.99-19.37l27.26,6.815c2.79,0.698,5.318-1.83,4.62-4.62l-6.815-27.261
	c-3.372-13.487,5.619-26.943,19.37-28.989l27.795-4.136c2.845-0.423,4.213-3.726,2.5-6.036l-16.73-22.577
	C367.787,245.154,370.943,229.282,382.864,222.13z"/>
<circle style="fill:#F9DB7B;" cx="204.405" cy="204.435" r="128"/>
<g>
</g>
<g>
</g>
<g>
</g>
<g>
</g>
<g>
</g>
<g>
</g>
<g>
</g>
<g>
</g>
<g>
</g>
<g>
</g>
<g>
</g>
<g>
</g>
<g>
</g>
<g>
</g>
<g>
</g>
</svg>
