<?xml version="1.0" encoding="iso-8859-1"?>
<!-- Generator: Adobe Illustrator 19.0.0, SVG Export Plug-In . SVG Version: 6.00 Build 0)  -->
<svg version="1.1" id="Capa_1" xmlns="http://www.w3.org/2000/svg" xmlns:xlink="http://www.w3.org/1999/xlink" x="0px" y="0px"
	 viewBox="0 0 448 448" style="enable-background:new 0 0 448 448;" xml:space="preserve">
<path style="fill:#F3F3F3;" d="M352,87.996c-5.588,0-11.031,0.578-16.355,1.494C313.727,50.432,271.977,23.996,224,23.996
	s-89.726,26.434-111.645,65.494c-5.324-0.916-10.767-1.494-16.355-1.494c-53.019,0-96,42.981-96,96s42.981,96,96,96h256
	c53.019,0,96-42.981,96-96S405.019,87.996,352,87.996z"/>
<path style="fill:#E1E1E1;" d="M352,87.996c-5.586,0-11.031,0.578-16.355,1.494c-0.098-0.177-0.23-0.332-0.332-0.509
	c10.57,18.62,16.687,40.1,16.687,63.041c0,70.678-57.297,127.974-127.973,127.974H352c53.019,0,96-42.981,96-96
	S405.019,87.996,352,87.996z"/>
<g>
	<circle style="fill:#70A9DC;" cx="375.995" cy="368.001" r="8"/>
	<path style="fill:#70A9DC;" d="M375.999,312.004c-4.418,0-8,3.581-8,8v16c0,4.418,3.582,8,8,8s8-3.582,8-8v-16
		C383.999,315.584,380.417,312.004,375.999,312.004z"/>
	<path style="fill:#70A9DC;" d="M375.999,392.004c-4.418,0-8,3.581-8,7.999v16.001c0,4.418,3.582,8,8,8s8-3.582,8-8v-16.001
		C383.999,395.584,380.417,392.004,375.999,392.004z"/>
	<path style="fill:#70A9DC;" d="M352.3,345.084l-13.855-8c-3.828-2.209-8.718-0.898-10.93,2.928s-0.898,8.718,2.93,10.928l13.855,8
		c3.824,2.209,8.718,0.898,10.926-2.928C357.436,352.185,356.124,347.292,352.3,345.084z"/>
	<path style="fill:#70A9DC;" d="M421.581,385.084l-13.855-8c-3.828-2.209-8.718-0.898-10.93,2.928
		c-2.207,3.827-0.898,8.72,2.93,10.929l13.855,8c3.828,2.209,8.718,0.898,10.93-2.929
		C426.718,392.186,425.409,387.294,421.581,385.084z"/>
	<path style="fill:#70A9DC;" d="M344.272,377.084l-13.851,8c-3.828,2.209-5.141,7.102-2.93,10.928
		c2.211,3.827,7.102,5.138,10.93,2.929l13.851-8c3.828-2.209,5.141-7.102,2.93-10.928
		C352.991,376.186,348.1,374.876,344.272,377.084z"/>
	<path style="fill:#70A9DC;" d="M407.702,358.944l13.855-8c3.824-2.209,5.137-7.102,2.93-10.928
		c-2.211-3.826-7.106-5.137-10.93-2.928l-13.855,8c-3.828,2.209-5.137,7.102-2.93,10.928
		C398.983,359.843,403.874,361.154,407.702,358.944z"/>
	<circle style="fill:#70A9DC;" cx="223.995" cy="368.001" r="8"/>
	<path style="fill:#70A9DC;" d="M223.998,312.004c-4.418,0-8,3.581-8,8v16c0,4.418,3.582,8,8,8s8-3.582,8-8v-16
		C231.998,315.584,228.417,312.004,223.998,312.004z"/>
	<path style="fill:#70A9DC;" d="M223.998,392.004c-4.418,0-8,3.581-8,7.999v16.001c0,4.418,3.582,8,8,8s8-3.582,8-8v-16.001
		C231.998,395.584,228.417,392.004,223.998,392.004z"/>
	<path style="fill:#70A9DC;" d="M200.299,345.084l-13.855-8c-3.828-2.209-8.718-0.898-10.93,2.928s-0.898,8.718,2.93,10.928
		l13.855,8c3.824,2.209,8.718,0.898,10.926-2.928C205.436,352.185,204.124,347.292,200.299,345.084z"/>
	<path style="fill:#70A9DC;" d="M269.581,385.084l-13.855-8c-3.828-2.209-8.718-0.898-10.93,2.928
		c-2.207,3.827-0.898,8.72,2.93,10.929l13.855,8c3.828,2.209,8.718,0.898,10.93-2.929
		C274.718,392.186,273.409,387.294,269.581,385.084z"/>
	<path style="fill:#70A9DC;" d="M192.272,377.084l-13.851,8c-3.828,2.209-5.141,7.102-2.93,10.928
		c2.211,3.827,7.102,5.138,10.93,2.929l13.851-8c3.828-2.209,5.141-7.102,2.93-10.928
		C200.991,376.186,196.1,374.876,192.272,377.084z"/>
	<path style="fill:#70A9DC;" d="M255.702,358.944l13.855-8c3.824-2.209,5.137-7.102,2.93-10.928
		c-2.211-3.826-7.106-5.137-10.93-2.928l-13.855,8c-3.828,2.209-5.137,7.102-2.93,10.928
		C246.983,359.843,251.874,361.154,255.702,358.944z"/>
	<circle style="fill:#70A9DC;" cx="72.003" cy="368.001" r="8"/>
	<path style="fill:#70A9DC;" d="M71.999,312.004c-4.418,0-8,3.581-8,8v16c0,4.418,3.582,8,8,8s8-3.582,8-8v-16
		C79.999,315.584,76.417,312.004,71.999,312.004z"/>
	<path style="fill:#70A9DC;" d="M71.999,392.004c-4.418,0-8,3.581-8,7.999v16.001c0,4.418,3.582,8,8,8s8-3.582,8-8v-16.001
		C79.999,395.584,76.417,392.004,71.999,392.004z"/>
	<path style="fill:#70A9DC;" d="M48.3,345.084l-13.855-8c-3.828-2.209-8.718-0.898-10.93,2.928s-0.898,8.718,2.93,10.928l13.855,8
		c3.824,2.209,8.718,0.898,10.926-2.928C53.436,352.185,52.124,347.292,48.3,345.084z"/>
	<path style="fill:#70A9DC;" d="M117.581,385.084l-13.855-8c-3.828-2.209-8.718-0.898-10.93,2.928
		c-2.207,3.827-0.898,8.72,2.93,10.929l13.855,8c3.828,2.209,8.718,0.898,10.93-2.929
		C122.718,392.186,121.409,387.294,117.581,385.084z"/>
	<path style="fill:#70A9DC;" d="M40.272,377.084l-13.851,8c-3.828,2.209-5.141,7.102-2.93,10.928
		c2.211,3.827,7.102,5.138,10.93,2.929l13.851-8c3.828-2.209,5.141-7.102,2.93-10.928C48.991,376.186,44.101,374.876,40.272,377.084
		z"/>
	<path style="fill:#70A9DC;" d="M103.702,358.944l13.855-8c3.824-2.209,5.137-7.102,2.93-10.928
		c-2.211-3.826-7.106-5.137-10.93-2.928l-13.855,8c-3.828,2.209-5.137,7.102-2.93,10.928
		C94.983,359.843,99.874,361.154,103.702,358.944z"/>
</g>
<g>
</g>
<g>
</g>
<g>
</g>
<g>
</g>
<g>
</g>
<g>
</g>
<g>
</g>
<g>
</g>
<g>
</g>
<g>
</g>
<g>
</g>
<g>
</g>
<g>
</g>
<g>
</g>
<g>
</g>
</svg>
