<?xml version="1.0" encoding="iso-8859-1"?>
<!-- Generator: Adobe Illustrator 19.0.0, SVG Export Plug-In . SVG Version: 6.00 Build 0)  -->
<svg version="1.1" id="Capa_1" xmlns="http://www.w3.org/2000/svg" xmlns:xlink="http://www.w3.org/1999/xlink" x="0px" y="0px"
	 viewBox="0 0 512 512" style="enable-background:new 0 0 512 512;" xml:space="preserve">
<g transform="matrix(1.25 0 0 -1.25 0 45)">
	<g>
		<g>
			<path style="fill:#CCD6DD;" d="M307.2-66.4c-7.976,0-15.667-1.206-22.926-3.391c0.057,1.138,0.171,2.241,0.171,3.391
				c0,37.695-30.561,68.267-68.267,68.267c-31.505,0-57.947-21.367-65.82-50.369c-7.805,3.106-16.293,4.858-25.202,4.858
				c-37.706,0-68.267-30.561-68.267-68.267c0-37.683,30.561-68.267,68.267-68.267c31.505,0,57.947,21.367,65.82,50.381
				c7.805-3.106,16.293-4.87,25.202-4.87c4.267,0,8.42,0.444,12.47,1.195c-0.66-4.107-1.092-8.283-1.092-12.572
				c0-43.975,35.669-79.644,79.644-79.644s79.644,35.669,79.644,79.644C386.844-102.058,351.175-66.4,307.2-66.4"/>
			<path style="fill:#E1E8ED;" d="M352.711-225.689c-5.313,0-10.354-0.967-15.235-2.321c2.458,5.985,3.857,12.516,3.857,19.388
				c0,28.274-22.926,51.2-51.2,51.2c-11.594,0-22.153-3.994-30.731-10.479c-8.033,32.142-37.035,55.99-71.669,55.99
				c-32.29,0-59.676-20.73-69.757-49.573c-8.511,2.628-17.567,4.062-26.954,4.062C40.755-157.422,0-198.177,0-248.444
				c0-50.278,40.755-91.022,91.022-91.022h261.689c31.425,0,56.889,25.463,56.889,56.889S384.137-225.689,352.711-225.689"/>
		</g>
	</g>
</g>
<g>
</g>
<g>
</g>
<g>
</g>
<g>
</g>
<g>
</g>
<g>
</g>
<g>
</g>
<g>
</g>
<g>
</g>
<g>
</g>
<g>
</g>
<g>
</g>
<g>
</g>
<g>
</g>
<g>
</g>
</svg>
