<?xml version="1.0" encoding="iso-8859-1"?>
<!-- Generator: Adobe Illustrator 19.0.0, SVG Export Plug-In . SVG Version: 6.00 Build 0)  -->
<svg version="1.1" id="Capa_1" xmlns="http://www.w3.org/2000/svg" xmlns:xlink="http://www.w3.org/1999/xlink" x="0px" y="0px"
	 viewBox="0 0 448 448" style="enable-background:new 0 0 448 448;" xml:space="preserve">
<path style="fill:#F3F3F3;" d="M351.999,79.986c-5.588,0-11.031,0.578-16.355,1.494c-21.918-39.059-63.668-65.494-111.645-65.494
	S134.273,42.42,112.355,81.48c-5.324-0.916-10.767-1.494-16.355-1.494c-53.019,0-96,42.981-96,96s42.981,96,96,96h256
	c53.019,0,96-42.981,96-96S405.019,79.986,351.999,79.986z"/>
<path style="fill:#E1E1E1;" d="M351.999,79.986c-5.586,0-11.031,0.578-16.355,1.494c-0.098-0.177-0.23-0.332-0.332-0.509
	c10.57,18.62,16.687,40.1,16.687,63.041c0,70.678-57.297,127.974-127.973,127.974h127.973c53.019,0,96-42.981,96-96
	S405.019,79.986,351.999,79.986z"/>
<g>
	<path style="fill:#A4C4E7;" d="M191.999,432.014c-1.672,0-3.375-0.266-5.062-0.828c-8.375-2.797-12.906-11.859-10.11-20.242l32-96
		c2.797-8.375,11.782-12.953,20.234-10.117c8.375,2.797,12.906,11.859,10.11,20.242l-32,96
		C204.937,427.772,198.702,432.014,191.999,432.014z"/>
	<path style="fill:#A4C4E7;" d="M287.999,384.014c-1.672,0-3.375-0.266-5.062-0.828c-8.375-2.797-12.906-11.859-10.11-20.242l16-48
		c2.797-8.375,11.782-12.953,20.234-10.117c8.375,2.797,12.906,11.859,10.11,20.242l-16,48
		C300.937,379.772,294.702,384.014,287.999,384.014z"/>
	<path style="fill:#A4C4E7;" d="M127.999,384.014c-1.672,0-3.375-0.266-5.062-0.828c-8.375-2.797-12.906-11.859-10.11-20.242l16-48
		c2.797-8.375,11.797-12.953,20.234-10.117c8.375,2.797,12.906,11.859,10.11,20.242l-16,48
		C140.937,379.772,134.702,384.014,127.999,384.014z"/>
</g>
<g>
</g>
<g>
</g>
<g>
</g>
<g>
</g>
<g>
</g>
<g>
</g>
<g>
</g>
<g>
</g>
<g>
</g>
<g>
</g>
<g>
</g>
<g>
</g>
<g>
</g>
<g>
</g>
<g>
</g>
</svg>
