<?xml version="1.0" encoding="iso-8859-1"?>
<!-- Generator: Adobe Illustrator 19.0.0, SVG Export Plug-In . SVG Version: 6.00 Build 0)  -->
<svg version="1.1" id="Capa_1" xmlns="http://www.w3.org/2000/svg" xmlns:xlink="http://www.w3.org/1999/xlink" x="0px" y="0px"
	 viewBox="0 0 464 464" style="enable-background:new 0 0 464 464;" xml:space="preserve">
<path style="fill:#FCF1CE;" d="M441.66,199.261l20.748-12.449c2.123-1.274,2.123-4.351,0-5.626l-20.746-12.449
	c-10.265-6.159-12.983-19.826-5.856-29.445l14.403-19.438c1.474-1.99,0.297-4.833-2.153-5.198l-23.931-3.561
	c-11.841-1.762-19.582-13.349-16.679-24.962l5.868-23.47c0.601-2.402-1.575-4.578-3.978-3.978l-23.474,5.868
	c-11.613,2.903-23.198-4.838-24.96-16.678l-3.561-23.931c-0.365-2.45-3.208-3.627-5.198-2.153l-19.441,14.402
	c-9.618,7.126-23.285,4.408-29.443-5.857L290.813,9.593c-1.274-2.123-4.352-2.123-5.626,0L272.74,30.339
	c-6.158,10.265-19.825,12.983-29.443,5.857l-19.441-14.404c-1.99-1.474-4.833-0.297-5.198,2.153l-3.561,23.931
	c-1.762,11.84-13.347,19.581-24.96,16.678l-23.474-5.868c-2.402-0.601-4.578,1.575-3.978,3.978l5.868,23.472
	c2.903,11.613-4.838,23.198-16.678,24.961l-23.933,3.562c-2.45,0.365-3.627,3.208-2.153,5.198l14.403,19.438
	c7.127,9.618,4.409,23.286-5.856,29.445l-20.746,12.449c-2.123,1.274-2.123,4.351,0,5.626l20.748,12.449
	c10.264,6.158,12.982,19.825,5.856,29.442l-14.405,19.439c-1.474,1.99-0.297,4.833,2.153,5.198l23.933,3.561
	c11.84,1.762,19.582,13.348,16.678,24.961l-5.868,23.473c-0.601,2.402,1.575,4.578,3.978,3.978l23.472-5.868
	c11.614-2.903,23.2,4.838,24.962,16.678l3.561,23.931c0.365,2.45,3.208,3.627,5.198,2.153l19.439-14.404
	c9.618-7.126,23.284-4.408,29.443,5.856l12.449,20.748c1.274,2.123,4.351,2.123,5.626,0l12.448-20.747
	c6.159-10.265,19.826-12.983,29.444-5.856l19.438,14.404c1.99,1.474,4.833,0.297,5.198-2.153l3.561-23.931
	c1.762-11.841,13.348-19.582,24.962-16.678l23.472,5.868c2.402,0.601,4.578-1.575,3.978-3.978l-5.868-23.473
	c-2.903-11.613,4.838-23.198,16.678-24.961l23.933-3.561c2.45-0.365,3.627-3.208,2.153-5.198l-14.405-19.439
	C428.678,219.086,431.396,205.419,441.66,199.261z"/>
<circle style="fill:#F9DB7B;" cx="288.031" cy="183.996" r="110.216"/>
<path style="fill:#F3F3F3;" d="M352,264c-5.588,0-11.031,0.578-16.355,1.494C313.727,226.435,271.977,200,224,200
	s-89.726,26.434-111.645,65.494C107.031,264.578,101.588,264,96,264c-53.019,0-96,42.981-96,96s42.981,96,96,96h256
	c53.019,0,96-42.981,96-96S405.019,264,352,264z"/>
<path style="fill:#E1E1E1;" d="M352,264c-5.586,0-11.031,0.578-16.355,1.494c-0.098-0.177-0.23-0.332-0.332-0.509
	c10.57,18.62,16.687,40.1,16.687,63.041C352,398.704,294.703,456,224.027,456H352c53.019,0,96-42.981,96-96S405.019,264,352,264z"/>
<g>
</g>
<g>
</g>
<g>
</g>
<g>
</g>
<g>
</g>
<g>
</g>
<g>
</g>
<g>
</g>
<g>
</g>
<g>
</g>
<g>
</g>
<g>
</g>
<g>
</g>
<g>
</g>
<g>
</g>
</svg>
