<?xml version="1.0" encoding="iso-8859-1"?>
<!-- Generator: Adobe Illustrator 19.0.0, SVG Export Plug-In . SVG Version: 6.00 Build 0)  -->
<svg version="1.1" id="Capa_1" xmlns="http://www.w3.org/2000/svg" xmlns:xlink="http://www.w3.org/1999/xlink" x="0px" y="0px"
	 viewBox="0 0 448 448" style="enable-background:new 0 0 448 448;" xml:space="preserve">
<g>
	<path style="fill:#A4C4E7;" d="M415.959,289.531c-13.808,13.808-32,26.832-32,45.248c0,42.288,64,42.336,64,0
		C447.959,316.347,429.767,303.339,415.959,289.531z"/>
	<path style="fill:#A4C4E7;" d="M351.959,369.531c-13.808,13.808-32,26.832-32,45.248c0,42.288,64,42.336,64,0
		C383.959,396.347,365.767,383.339,351.959,369.531z"/>
</g>
<path style="fill:#F3F3F3;" d="M352,65.487c-5.588,0-11.031,0.578-16.355,1.494C313.727,27.922,271.977,1.487,224,1.487
	s-89.726,26.434-111.645,65.494c-5.324-0.916-10.767-1.494-16.355-1.494c-53.019,0-96,42.981-96,96s42.981,96,96,96h256
	c53.019,0,96-42.981,96-96S405.019,65.487,352,65.487z"/>
<path style="fill:#E1E1E1;" d="M352,65.487c-5.586,0-11.031,0.578-16.355,1.494c-0.098-0.177-0.23-0.332-0.332-0.509
	c10.57,18.62,16.687,40.1,16.687,63.041c0,70.678-57.297,127.974-127.973,127.974H352c53.019,0,96-42.981,96-96
	S405.019,65.487,352,65.487z"/>
<path style="fill:#A4C4E7;" d="M313.5,257.487l30.953-53.578c2.859-4.946,2.859-11.047,0-16s-8.141-8-13.859-8h-61.875
	l-30.922-53.586c-2.859-4.946-8.141-8-13.859-8s-11,3.047-13.859,8l-30.938,53.586h-61.875c-5.718,0-11,3.047-13.859,8
	s-2.859,11.054,0,16l30.938,53.578l-30.938,53.578c-2.859,4.946-2.859,11.047,0,16s8.141,8,13.859,8h61.875l30.938,53.586
	c2.859,4.953,8.141,8,13.859,8s11-3.054,13.859-8l30.922-53.586h61.875c5.718,0,11-3.047,13.859-8s2.859-11.054,0-16L313.5,257.487z
	 M285.781,241.503h-34.133l17.078-29.594h34.149L285.781,241.503z M223.938,166.323l17.07,29.586l-17.074,29.584l-17.082-29.584
	L223.938,166.323z M179.133,211.909l17.086,29.588l-34.149-0.008l-17.086-29.58L179.133,211.909L179.133,211.909z M162.066,273.489
	l34.152,0.008l-17.082,29.568h-34.152L162.066,273.489z M223.938,348.651l-17.082-29.584l17.078-29.568l17.074,29.57
	L223.938,348.651z M268.726,303.065l-17.07-29.562h34.145l17.074,29.562H268.726z"/>
<g>
	<circle style="fill:#70A9DC;" cx="150.043" cy="129.474" r="16"/>
	<ellipse style="fill:#70A9DC;" cx="76.08" cy="257.47" rx="16" ry="16"/>
	<ellipse style="fill:#70A9DC;" cx="149.998" cy="385.484" rx="16" ry="16"/>
	<circle style="fill:#70A9DC;" cx="297.851" cy="385.522" r="16"/>
	<ellipse style="fill:#70A9DC;" cx="371.738" cy="257.557" rx="16" ry="16"/>
	<ellipse style="fill:#70A9DC;" cx="297.843" cy="129.496" rx="16" ry="16"/>
</g>
<g>
</g>
<g>
</g>
<g>
</g>
<g>
</g>
<g>
</g>
<g>
</g>
<g>
</g>
<g>
</g>
<g>
</g>
<g>
</g>
<g>
</g>
<g>
</g>
<g>
</g>
<g>
</g>
<g>
</g>
</svg>
