<?xml version="1.0" encoding="iso-8859-1"?>
<!-- Generator: Adobe Illustrator 19.0.0, SVG Export Plug-In . SVG Version: 6.00 Build 0)  -->
<svg version="1.1" id="Capa_1" xmlns="http://www.w3.org/2000/svg" xmlns:xlink="http://www.w3.org/1999/xlink" x="0px" y="0px"
	 viewBox="0 0 448 448" style="enable-background:new 0 0 448 448;" xml:space="preserve">
<path style="fill:#F3F3F3;" d="M351.999,64c-5.588,0-11.031,0.578-16.355,1.494C313.726,26.435,271.976,0,223.999,0
	s-89.726,26.435-111.644,65.494C107.031,64.578,101.588,64,96,64c-53.019,0-96,42.981-96,96s42.981,96,96,96h256
	c53.019,0,96-42.981,96-96S405.019,64,351.999,64z"/>
<path style="fill:#E1E1E1;" d="M351.999,64c-5.586,0-11.031,0.578-16.355,1.494c-0.098-0.177-0.23-0.332-0.332-0.509
	c10.57,18.62,16.687,40.1,16.687,63.041c0,70.678-57.297,127.974-127.973,127.974h127.973c53.019,0,96-42.981,96-96
	S405.019,64,351.999,64z"/>
<g>
	<circle style="fill:#A4C4E7;" cx="376.003" cy="344.001" r="8"/>
	<path style="fill:#A4C4E7;" d="M375.999,288c-4.418,0-8,3.581-8,8v16c0,4.418,3.582,8,8,8s8-3.582,8-8v-16
		C383.999,291.582,380.418,288,375.999,288z"/>
	<path style="fill:#A4C4E7;" d="M375.999,368c-4.418,0-8,3.581-8,7.999V392c0,4.418,3.582,8,8,8s8-3.582,8-8v-16.001
		C383.999,371.582,380.418,368,375.999,368z"/>
	<path style="fill:#A4C4E7;" d="M352.3,321.08l-13.855-8c-3.828-2.209-8.718-0.898-10.93,2.928s-0.898,8.718,2.93,10.928l13.855,8
		c3.824,2.209,8.718,0.898,10.926-2.928C357.437,328.182,356.125,323.29,352.3,321.08z"/>
	<path style="fill:#A4C4E7;" d="M421.582,361.082l-13.855-8c-3.828-2.209-8.718-0.898-10.93,2.928
		c-2.207,3.827-0.898,8.72,2.93,10.929l13.855,8c3.828,2.209,8.718,0.898,10.93-2.929
		C426.718,368.183,425.41,363.29,421.582,361.082z"/>
	<path style="fill:#A4C4E7;" d="M344.273,353.082l-13.851,8c-3.828,2.209-5.141,7.102-2.93,10.928
		c2.211,3.827,7.102,5.138,10.93,2.929l13.851-8c3.828-2.209,5.141-7.102,2.93-10.928
		C352.992,352.183,348.101,350.872,344.273,353.082z"/>
	<path style="fill:#A4C4E7;" d="M407.702,334.941l13.855-8c3.824-2.209,5.137-7.102,2.93-10.928
		c-2.211-3.826-7.106-5.137-10.93-2.928l-13.855,8c-3.828,2.209-5.137,7.102-2.93,10.928
		C398.984,335.839,403.874,337.15,407.702,334.941z"/>
	<circle style="fill:#A4C4E7;" cx="248.003" cy="392.001" r="8"/>
	<path style="fill:#A4C4E7;" d="M247.999,336c-4.418,0-8,3.581-8,8v16c0,4.418,3.582,8,8,8s8-3.582,8-8v-16
		C255.999,339.582,252.418,336,247.999,336z"/>
	<path style="fill:#A4C4E7;" d="M247.999,416c-4.418,0-8,3.581-8,7.999V440c0,4.418,3.582,8,8,8s8-3.582,8-8v-16.001
		C255.999,419.582,252.418,416,247.999,416z"/>
	<path style="fill:#A4C4E7;" d="M224.3,369.08l-13.855-8c-3.828-2.209-8.718-0.898-10.93,2.928s-0.898,8.718,2.93,10.928l13.855,8
		c3.824,2.209,8.718,0.898,10.926-2.928C229.437,376.182,228.125,371.29,224.3,369.08z"/>
	<path style="fill:#A4C4E7;" d="M293.582,409.082l-13.855-8c-3.828-2.209-8.718-0.898-10.93,2.928
		c-2.207,3.827-0.898,8.72,2.93,10.929l13.855,8c3.828,2.209,8.718,0.898,10.93-2.929
		C298.718,416.183,297.41,411.29,293.582,409.082z"/>
	<path style="fill:#A4C4E7;" d="M216.273,401.082l-13.851,8c-3.828,2.209-5.141,7.102-2.93,10.928
		c2.211,3.827,7.102,5.138,10.93,2.929l13.851-8c3.828-2.209,5.141-7.102,2.93-10.928
		C224.992,400.183,220.101,398.872,216.273,401.082z"/>
	<path style="fill:#A4C4E7;" d="M279.702,382.941l13.855-8c3.824-2.209,5.137-7.102,2.93-10.928
		c-2.211-3.826-7.106-5.137-10.93-2.928l-13.855,8c-3.828,2.209-5.137,7.102-2.93,10.928
		C270.984,383.839,275.874,385.15,279.702,382.941z"/>
	<path style="fill:#A4C4E7;" d="M127.999,197.754c-45.472,45.472-64,57.2-64,90.512c0,35.344,28.656,64,64,64s64-28.656,64-64
		C191.999,254.986,173.567,243.322,127.999,197.754z"/>
</g>
<g>
</g>
<g>
</g>
<g>
</g>
<g>
</g>
<g>
</g>
<g>
</g>
<g>
</g>
<g>
</g>
<g>
</g>
<g>
</g>
<g>
</g>
<g>
</g>
<g>
</g>
<g>
</g>
<g>
</g>
</svg>
